<?xml version="1.0" encoding="UTF-8"?>
<svg width="60px" height="61px" viewBox="0 0 60 61" version="1.1" xmlns="http://www.w3.org/2000/svg" xmlns:xlink="http://www.w3.org/1999/xlink">
    <!-- Generator: Sketch 47 (45396) - http://www.bohemiancoding.com/sketch -->
    <title>icon-webpage</title>
    <desc>Created with Sketch.</desc>
    <defs></defs>
    <g id="Page-1" stroke="none" stroke-width="1" fill="none" fill-rule="evenodd">
        <g id="Broker---Desktop" transform="translate(-1030.000000, -1262.000000)" fill="#2299A2">
            <g id="Resources-Section" transform="translate(75.000000, 992.000000)">
                <g id="card" transform="translate(799.000000, 200.000000)">
                    <g id="icon-webpage-in-circle" transform="translate(116.000000, 30.000000)">
                        <path d="M50.6117,78.0282 C50.0767,78.0282 49.6377,77.5902 49.6377,77.0542 L49.6377,76.0442 C49.6377,75.5082 50.0767,75.0702 50.6117,75.0702 L67.3477,75.0702 C67.8827,75.0702 68.3207,75.5082 68.3207,76.0442 L68.3207,77.0542 C68.3207,77.5902 67.8827,78.0282 67.3477,78.0282 L50.6117,78.0282 Z M50.6117,84.2381 C50.0767,84.2381 49.6377,83.8001 49.6377,83.2641 L49.6377,82.2541 C49.6377,81.7191 50.0767,81.2811 50.6117,81.2811 L67.3477,81.2811 C67.8827,81.2811 68.3207,81.7191 68.3207,82.2541 L68.3207,83.2641 C68.3207,83.8001 67.8827,84.2381 67.3477,84.2381 L50.6117,84.2381 Z M50.6117,90.4486 C50.0767,90.4486 49.6377,90.0106 49.6377,89.4746 L49.6377,88.4646 C49.6377,87.9296 50.0767,87.4916 50.6117,87.4916 L61.3307,87.4916 C61.8667,87.4916 62.3047,87.9296 62.3047,88.4646 L62.3047,89.4746 C62.3047,90.0106 61.8667,90.4486 61.3307,90.4486 L50.6117,90.4486 Z M50.7323,70.7821 C50.1283,70.7821 49.6383,70.2921 49.6383,69.6871 L49.6383,59.6041 C49.6383,58.9991 50.1283,58.5091 50.7323,58.5091 L88.4293,58.5091 C89.0343,58.5091 89.5243,58.9991 89.5243,59.6041 L89.5243,69.6871 C89.5243,70.2921 89.0343,70.7821 88.4293,70.7821 L50.7323,70.7821 Z M73.2494,89.9998 C72.7454,89.9998 72.3364,89.5908 72.3364,89.0868 L72.3364,75.9828 C72.3364,75.4788 72.7454,75.0708 73.2494,75.0708 L89.0324,75.0708 C89.5364,75.0708 89.9454,75.4788 89.9454,75.9828 L89.9454,89.0868 C89.9454,89.5908 89.5364,89.9998 89.0324,89.9998 L73.2494,89.9998 Z M48.683,39.9998 C43.887,39.9998 40,43.8878 40,48.6828 L40,53.2338 L40,92.2878 C40,96.8638 43.553,100.6238 48.043,100.9518 L71.757,100.9768 L90.898,100.9768 C95.695,100.9768 99.583,97.0888 99.583,92.2918 L99.583,53.2338 L99.583,48.6848 C99.583,43.8888 95.695,39.9998 90.898,39.9998 L48.683,39.9998 Z M63.623,46.9998 L63.676,46.8658 C63.711,46.7568 63.752,46.6498 63.804,46.5468 C63.84,46.4718 63.877,46.3998 63.922,46.3288 C63.985,46.2288 64.058,46.1388 64.136,46.0488 C64.208,45.9648 64.286,45.8888 64.369,45.8148 C64.458,45.7388 64.55,45.6648 64.649,45.6018 C64.72,45.5568 64.792,45.5198 64.868,45.4828 C64.97,45.4318 65.076,45.3918 65.186,45.3558 L65.32,45.3028 L65.378,45.2958 C65.547,45.2568 65.723,45.2318 65.904,45.2318 L65.937,45.2358 L66.058,45.2478 C66.206,45.2568 66.35,45.2778 66.49,45.3138 L66.658,45.3678 C66.78,45.4088 66.897,45.4588 67.01,45.5198 L67.151,45.5968 C67.3,45.6908 67.443,45.7958 67.567,45.9208 L67.568,45.9208 C67.692,46.0458 67.797,46.1868 67.891,46.3378 L67.969,46.4788 C68.029,46.5908 68.08,46.7078 68.122,46.8308 L68.174,46.9988 C68.209,47.1388 68.231,47.2828 68.241,47.4318 L68.253,47.5508 L68.257,47.5848 C68.257,47.7668 68.231,47.9408 68.192,48.1108 L68.185,48.1698 L68.133,48.3018 C68.098,48.4128 68.057,48.5188 68.006,48.6218 C67.969,48.6958 67.932,48.7688 67.887,48.8398 C67.824,48.9388 67.751,49.0308 67.674,49.1188 C67.6,49.2038 67.523,49.2798 67.439,49.3528 C67.35,49.4298 67.26,49.5038 67.16,49.5668 C67.089,49.6118 67.016,49.6478 66.941,49.6858 C66.838,49.7358 66.732,49.7778 66.622,49.8128 L66.49,49.8668 L66.432,49.8718 C66.261,49.9108 66.086,49.9358 65.904,49.9358 L65.87,49.9338 L65.752,49.9208 C65.603,49.9108 65.458,49.8908 65.318,49.8538 L65.151,49.8018 C65.028,49.7598 64.912,49.7088 64.799,49.6478 L64.657,49.5718 C64.507,49.4778 64.366,49.3718 64.242,49.2468 C64.117,49.1228 64.011,48.9798 63.917,48.8318 L63.841,48.6898 C63.78,48.5778 63.729,48.4598 63.687,48.3378 L63.635,48.1698 C63.599,48.0308 63.578,47.8868 63.568,47.7368 L63.556,47.6178 L63.552,47.5848 C63.552,47.4028 63.578,47.2278 63.616,47.0578 L63.623,46.9998 Z M56.078,46.9998 L56.131,46.8668 C56.166,46.7568 56.207,46.6498 56.258,46.5468 C56.295,46.4718 56.332,46.3998 56.376,46.3288 C56.44,46.2288 56.513,46.1388 56.591,46.0488 C56.664,45.9648 56.74,45.8888 56.824,45.8158 C56.913,45.7388 57.004,45.6648 57.104,45.6008 C57.175,45.5568 57.247,45.5198 57.322,45.4828 C57.425,45.4318 57.532,45.3908 57.642,45.3548 L57.774,45.3028 L57.832,45.2958 C58.002,45.2568 58.178,45.2318 58.359,45.2318 L58.393,45.2358 L58.512,45.2478 C58.661,45.2568 58.805,45.2778 58.945,45.3138 L59.113,45.3668 C59.236,45.4088 59.352,45.4588 59.465,45.5198 L59.606,45.5968 C59.906,45.7858 60.158,46.0378 60.347,46.3378 L60.423,46.4788 C60.484,46.5908 60.535,46.7078 60.577,46.8308 L60.629,46.9988 C60.665,47.1388 60.686,47.2828 60.696,47.4318 L60.708,47.5508 L60.711,47.5848 C60.711,47.7668 60.686,47.9408 60.647,48.1108 L60.641,48.1698 L60.588,48.3018 C60.553,48.4128 60.511,48.5188 60.46,48.6218 C60.423,48.6958 60.387,48.7688 60.342,48.8398 C60.278,48.9398 60.204,49.0318 60.128,49.1208 C60.055,49.2038 59.978,49.2798 59.895,49.3518 C59.807,49.4298 59.714,49.5038 59.614,49.5668 C59.544,49.6118 59.472,49.6478 59.396,49.6858 C59.294,49.7358 59.187,49.7778 59.077,49.8128 L58.944,49.8668 L58.887,49.8718 C58.717,49.9108 58.541,49.9358 58.359,49.9358 L58.325,49.9338 L58.206,49.9208 C58.058,49.9108 57.912,49.8908 57.773,49.8538 L57.605,49.8018 C57.483,49.7598 57.366,49.7088 57.253,49.6478 L57.113,49.5718 C56.813,49.3838 56.56,49.1308 56.371,48.8318 L56.295,48.6898 C56.235,48.5778 56.183,48.4598 56.142,48.3388 L56.09,48.1698 C56.054,48.0308 56.032,47.8858 56.023,47.7368 L56.011,47.6178 L56.007,47.5848 C56.007,47.4028 56.032,47.2278 56.072,47.0568 L56.078,46.9998 Z M48.533,46.9988 L48.585,46.8658 C48.621,46.7568 48.662,46.6498 48.714,46.5468 C48.75,46.4718 48.787,46.3988 48.831,46.3288 C48.895,46.2288 48.969,46.1378 49.046,46.0478 C49.12,45.9648 49.196,45.8888 49.28,45.8148 C49.369,45.7378 49.459,45.6648 49.559,45.6018 C49.629,45.5568 49.703,45.5198 49.778,45.4828 C49.88,45.4318 49.986,45.3908 50.097,45.3548 L50.23,45.3028 L50.287,45.2958 C50.457,45.2568 50.632,45.2318 50.814,45.2318 L50.849,45.2358 L50.968,45.2478 C51.116,45.2568 51.26,45.2778 51.4,45.3138 L51.568,45.3678 C51.691,45.4088 51.808,45.4588 51.92,45.5198 L52.061,45.5968 C52.211,45.6908 52.352,45.7958 52.476,45.9198 L52.478,45.9218 C52.602,46.0458 52.707,46.1878 52.802,46.3378 L52.878,46.4788 C52.939,46.5908 52.99,46.7078 53.031,46.8308 L53.083,46.9988 C53.12,47.1388 53.141,47.2818 53.15,47.4308 L53.163,47.5508 L53.166,47.5848 C53.166,47.7668 53.141,47.9408 53.101,48.1108 L53.096,48.1698 L53.043,48.3008 C53.007,48.4128 52.967,48.5188 52.915,48.6218 C52.879,48.6958 52.842,48.7688 52.797,48.8398 C52.734,48.9388 52.66,49.0298 52.583,49.1188 C52.51,49.2028 52.434,49.2798 52.35,49.3518 C52.261,49.4298 52.169,49.5038 52.07,49.5668 C51.999,49.6118 51.927,49.6478 51.852,49.6858 C51.749,49.7358 51.642,49.7778 51.532,49.8128 L51.4,49.8668 L51.342,49.8718 C51.171,49.9108 50.996,49.9358 50.814,49.9358 L50.781,49.9338 L50.662,49.9208 C50.513,49.9108 50.369,49.8908 50.228,49.8538 L50.061,49.8018 C49.938,49.7598 49.822,49.7088 49.709,49.6478 L49.567,49.5718 C49.267,49.3838 49.015,49.1308 48.827,48.8318 L48.75,48.6898 C48.69,48.5768 48.639,48.4598 48.596,48.3378 L48.545,48.1698 C48.508,48.0308 48.488,47.8858 48.478,47.7368 L48.465,47.6178 L48.462,47.5848 C48.462,47.4018 48.488,47.2278 48.527,47.0568 L48.533,46.9988 Z M95.45,92.2878 C95.45,94.8038 93.41,96.8428 90.894,96.8428 L48.683,96.8428 C46.171,96.8428 44.134,94.8058 44.134,92.2938 L44.134,53.2338 L95.45,53.2338 L95.45,92.2878 Z" id="icon-webpage"></path>
                    </g>
                </g>
            </g>
        </g>
    </g>
</svg>