<?xml version="1.0" encoding="UTF-8"?>
<svg width="65px" height="59px" viewBox="0 0 65 59" version="1.1" xmlns="http://www.w3.org/2000/svg" xmlns:xlink="http://www.w3.org/1999/xlink">
    <!-- Generator: Sketch 47 (45396) - http://www.bohemiancoding.com/sketch -->
    <title>icon-email</title>
    <desc>Created with Sketch.</desc>
    <defs></defs>
    <g id="Page-1" stroke="none" stroke-width="1" fill="none" fill-rule="evenodd">
        <g id="Broker---Desktop" transform="translate(-628.000000, -1263.000000)" fill="#2299A2">
            <g id="Resources-Section" transform="translate(75.000000, 992.000000)">
                <g id="card" transform="translate(400.000000, 200.000000)">
                    <g id="icon-email-in-circle" transform="translate(116.000000, 30.000000)">
                        <path d="M100.749904,63.3176379 C101.093646,63.3176379 101.409433,63.5920101 101.409433,63.9761312 L101.409433,94.5587941 C101.409433,97.3159757 99.1751114,99.5502972 96.4179298,99.5502972 L42.9070702,99.5502972 C40.1498886,99.5502972 37.9155671,97.3159757 37.9155671,94.5587941 L37.9155671,63.9761312 C37.9155671,63.5920101 38.2303186,63.3176379 38.5740604,63.3176379 C38.68588,63.3176379 38.7997704,63.3466282 38.9074485,63.4097855 L65.2451078,78.9630648 C65.6105922,79.1773857 67.597461,80.4829832 69.6630177,80.4829832 C71.4976876,80.4829832 73.6212248,79.2332955 73.9856738,79.0179392 L100.416516,63.4097855 C100.524194,63.3466282 100.63912,63.3176379 100.749904,63.3176379 Z M96.9573558,94.5587941 L96.9573558,70.6221503 L76.2489856,82.8519023 C74.6389903,83.802369 72.1893125,84.9360956 69.6630177,84.9360956 C67.5570817,84.9360956 65.324831,84.2247986 63.0273522,82.8239474 L62.9745485,82.791851 L42.3666088,70.6221503 L42.3666088,94.5587941 C42.3666088,94.8559444 42.6088846,95.0982202 42.9070702,95.0982202 L96.4179298,95.0982202 C96.7161154,95.0982202 96.9573558,94.8559444 96.9573558,94.5587941 Z M40.341742,58.1212357 L40.2413115,57.9731783 L40.248559,57.8582526 L40.2413115,57.8302977 L40.2506298,57.8292623 C40.27962,57.6522146 40.3852274,57.4948389 40.5426032,57.4006205 C40.5426032,57.4006205 65.7827737,42.4965162 67.2053676,41.6557984 C68.6279615,40.8161159 71.1376905,40.7011902 72.804631,41.7924668 L99.2354733,57.4006205 C99.392849,57.4938035 99.4984564,57.6511792 99.5274467,57.8271916 L99.5378004,57.8302977 L99.5295175,57.8582526 L99.5378004,57.9731783 L99.4373698,58.1212357 C99.3876722,58.2351261 99.3234795,58.3510872 99.2354733,58.4018201 L87.6227999,65.2600895 L87.6227999,54.3928801 C87.6227999,53.4765805 86.8794065,52.7331872 85.963107,52.7331872 L53.3625142,52.7331872 C52.4451793,52.7331872 51.7028213,53.4765805 51.7028213,54.3928801 L51.7028213,64.9919295 L40.5426032,58.4018201 C40.4556324,58.3510872 40.3914396,58.2351261 40.341742,58.1212357 Z M83.1002144,57.7527487 L83.1002144,58.5903604 C83.1002144,59.0334974 82.7368007,59.3969111 82.2936637,59.3969111 L57.0307151,59.3969111 C56.5886135,59.3969111 56.2241644,59.0334974 56.2241644,58.5903604 L56.2241644,57.7527487 C56.2241644,57.3085764 56.5886135,56.946198 57.0307151,56.946198 L82.2936637,56.946198 C82.7368007,56.946198 83.1002144,57.3085764 83.1002144,57.7527487 Z M83.1002144,63.7359261 C83.1002144,64.1800984 82.7368007,64.5424768 82.2936637,64.5424768 L57.0307151,64.5424768 C56.5886135,64.5424768 56.2241644,64.1800984 56.2241644,63.7359261 L56.2241644,62.8983144 C56.2241644,62.4551774 56.5886135,62.092799 57.0307151,62.092799 L82.2936637,62.092799 C82.7368007,62.092799 83.1002144,62.4551774 83.1002144,62.8983144 L83.1002144,63.7359261 Z M57.0310257,67.2388824 L69.6625,67.2388824 C70.1066723,67.2388824 70.4690507,67.6022961 70.4690507,68.0454331 L70.4690507,68.8820094 C70.4690507,69.3261817 70.1066723,69.6895955 69.6625,69.6895955 L57.0310257,69.6895955 C56.5878887,69.6895955 56.224475,69.3261817 56.224475,68.8820094 L56.224475,68.0454331 C56.224475,67.6022961 56.5878887,67.2388824 57.0310257,67.2388824 Z" id="icon-email"></path>
                    </g>
                </g>
            </g>
        </g>
    </g>
</svg>