<?xml version="1.0" encoding="UTF-8"?>
<svg width="65px" height="59px" viewBox="0 0 65 59" version="1.1" xmlns="http://www.w3.org/2000/svg" xmlns:xlink="http://www.w3.org/1999/xlink">
    <!-- Generator: Sketch 47 (45396) - http://www.bohemiancoding.com/sketch -->
    <title>icon-ads</title>
    <desc>Created with Sketch.</desc>
    <defs></defs>
    <g id="Page-1" stroke="none" stroke-width="1" fill="none" fill-rule="evenodd">
        <g id="Broker---Desktop" transform="translate(-229.000000, -1269.000000)" fill="#2299A2">
            <g id="Resources-Section" transform="translate(75.000000, 992.000000)">
                <g id="card" transform="translate(0.000000, 200.000000)">
                    <g id="icon-ads-in-cirlce" transform="translate(116.000000, 30.000000)">
                        <path d="M47.1648,85.0986 L47.1648,67.7356 L54.2518,67.7356 L54.2518,85.0986 L47.1648,85.0986 Z M79.8408,81.9176 L79.8408,70.9146 L93.4448,70.9146 L93.4448,81.9176 L79.8408,81.9176 Z M63.5185,97.3506 L77.0915,97.3506 C77.5075,97.3506 77.8835,97.5956 78.0535,97.9746 L80.6795,103.8696 C80.9885,104.5656 80.4805,105.3506 79.7175,105.3506 L60.8925,105.3506 C60.1305,105.3506 59.6205,104.5656 59.9305,103.8696 L62.5575,97.9746 C62.7265,97.5956 63.1035,97.3506 63.5185,97.3506 Z M47.1648,63.6166 L47.1648,56.5306 L93.4448,56.5306 L93.4448,63.6166 L47.1648,63.6166 Z M44.114,51 C42.948,51 42,51.948 42,53.114 L42,87.972 C42,89.138 42.948,90.086 44.114,90.086 L96.496,90.086 C97.662,90.086 98.61,89.138 98.61,87.972 L98.61,53.114 C98.61,51.948 97.662,51 96.496,51 L44.114,51 Z M96.496,94.086 L44.114,94.086 C40.743,94.086 38,91.343 38,87.972 L38,53.114 C38,49.743 40.743,47 44.114,47 L96.496,47 C99.867,47 102.61,49.743 102.61,53.114 L102.61,87.972 C102.61,91.343 99.867,94.086 96.496,94.086 L96.496,94.086 Z" id="icon-ads"></path>
                    </g>
                </g>
            </g>
        </g>
    </g>
</svg>